<svg width="344" height="131" viewBox="0 0 344 131" fill="none" xmlns="http://www.w3.org/2000/svg">
<g clip-path="url(#clip0_458_2035)">
<path d="M55.7006 43.5916C54.6746 42.5458 53.1118 42.2371 51.7653 42.8142C50.4187 43.3913 49.5644 44.7359 49.6141 46.2001L50.9218 84.733C50.9696 86.1411 51.8449 87.3879 53.153 87.9111C54.4611 88.4343 55.9548 88.1351 56.9604 87.1485L111.06 34.0702C112.46 32.6961 112.482 30.4468 111.108 29.0462C109.734 27.6457 107.484 27.6243 106.084 28.9984L73.1169 61.3429L55.7006 43.5916Z" fill="black"/>
<path d="M120.613 86.0801L103.197 68.3287L70.23 100.673C68.8295 102.047 66.5802 102.026 65.2061 100.625C63.832 99.2249 63.8534 96.9756 65.2539 95.6015L119.353 42.5232C120.359 41.5365 121.853 41.2373 123.161 41.7606C124.469 42.2838 125.344 43.5306 125.392 44.9386L126.7 83.4716C126.749 84.9358 125.895 86.2803 124.549 86.8574C123.202 87.4345 121.639 87.1259 120.613 86.0801Z" fill="black"/>
<path d="M188.56 87.4351H153.088V36.7271H164.381V77.6573H188.56V87.4351ZM215.591 68.1069L232.19 87.4351H218.926L205.358 71.5936V87.4351H194.595V34.3016H205.358V65.1509L219.305 49.3094H231.963L215.591 68.1069ZM256.339 78.7942C258.562 78.7942 260.684 78.39 262.705 77.5815V86.5255C259.724 87.6877 256.617 88.2688 253.383 88.2688C248.936 88.2688 245.626 87.1571 243.453 84.9338C241.28 82.6599 240.194 79.5269 240.194 75.535V58.4808H233.979V49.3094H240.194V37.5609H250.957V49.3094H261.417V58.4808H250.957V73.1095C250.957 75.0802 251.336 76.5203 252.094 77.4299C252.902 78.3395 254.317 78.7942 256.339 78.7942ZM284.309 88.193C276.931 88.193 270.691 86.4497 265.587 82.9631L269.453 75.0044C271.373 76.3182 273.748 77.4552 276.577 78.4153C279.407 79.3754 282.085 79.8554 284.612 79.8554C286.583 79.8554 288.225 79.5522 289.539 78.9458C290.903 78.3395 291.585 77.4299 291.585 76.2172C291.585 75.0044 290.979 74.1707 289.766 73.7159C288.553 73.2106 286.38 72.68 283.248 72.1241C282.641 72.0231 282.186 71.9473 281.883 71.8968C277.184 71.0377 273.647 69.7997 271.272 68.1827C268.947 66.5657 267.785 64.0139 267.785 60.5273C267.785 56.7374 269.25 53.7814 272.181 51.6591C275.112 49.5368 279.256 48.4756 284.612 48.4756C290.372 48.4756 295.729 49.562 300.681 51.7349L297.876 59.8451C293.076 57.6217 288.528 56.51 284.233 56.51C280.14 56.51 278.093 57.6723 278.093 59.9967C278.093 61.4116 279.23 62.4474 281.504 63.1043C282.313 63.3065 283.778 63.5844 285.9 63.9381L286.583 64.0897C291.989 65.1003 295.931 66.3889 298.407 67.9553C300.883 69.5218 302.121 72.1494 302.121 75.8382C302.121 79.6785 300.504 82.7104 297.27 84.9338C294.086 87.1066 289.766 88.193 284.309 88.193Z" fill="black"/>
</g>
<defs>
<clipPath id="clip0_458_2035">
<rect width="344" height="130.215" fill="white"/>
</clipPath>
</defs>
</svg>
